# xmcd CD database file
#
# Track frame offsets:
#	150
#	14054
#	27708
#	44083
#	59930
#	70829
#	84725
#	98412
#	111120
#	127964
#	139381
#	151931
#	166278
#	179200
#	213436
#	226980
#	266556
#	278438
#	297619
#	313049
#	323628
#
# Disc length: 4488 seconds
#
# Revision: 0
# Processed by: cddbd v1.5.2PL0 Copyright (c) Steve Scherf et al.
# Submitted via: CDex 1.70beta2
#
DISCID=46118615
DTITLE=vvaa - VVAA - Musica Cubana
DYEAR=2005
DGENRE=Salsa
TTITLE0=Compay Segundo - Voy pa'Nayarí
TTITLE1=Benny Moré - Elige tu, que canto yo (Joseito Fernandez)
TTITLE2=H Cardenas Trio de Servando Diaz - El brujo de Guanabacoa
TTITLE3=Marcelino Guerra Rapindey - A mi manera
TTITLE4=Dámasp Pérez Prado Orquesta - Al compas del mambo
TTITLE5=Orquesta de Antonio Arcaño - Permanganato (Israel López Cachao)
TTITLE6=Conjunto Casino - Mi lindo Yambú
TTITLE7=Celia Cruz con La Sonora Matancera - Boncó
TTITLE8=Dúo Los Compadres - Mis maracas cubanas (Lorenzo Hierrezuelo)
TTITLE9=Guillermo Portabales - Soy hijo de Siboney
TTITLE10=Roberto Maza - Una rumba en la bodega (Alberto Zayas)
TTITLE11=José Antonio Méndez - Si me comprendieras
TTITLE12=Conjunto de Félix Chapotin - Cienfuegos (Victor Lay)
TTITLE13=Tumbao All-Stars - Descarga cubana
TTITLE14=Celina y Reutilio - Que viva Changó
TTITLE15=Machito y sus Afrocubans - Tangá (Mario Bauzá)
TTITLE16=Pancho Alonso - Baila José Ramón (Enrique Bonne)
TTITLE17=René Alvarez - Aguanta ahí
TTITLE18=Omara Portuondo - Noche cubana (C´ñesar Portillo de la Luz)
TTITLE19=Cachao - Guajeo de saxos (E Peñalver)
TTITLE20=Bebo Valdés - Estoy matizando
EXTD=YEAR: 2005
EXTT0=
EXTT1=
EXTT2=
EXTT3=
EXTT4=
EXTT5=
EXTT6=
EXTT7=
EXTT8=
EXTT9=
EXTT10=
EXTT11=
EXTT12=
EXTT13=
EXTT14=
EXTT15=
EXTT16=
EXTT17=
EXTT18=
EXTT19=
EXTT20=
PLAYORDER=
